<svg height="96" width="96" xmlns="http://www.w3.org/2000/svg" xmlns:xlink="http://www.w3.org/1999/xlink"><linearGradient id="a" gradientUnits="userSpaceOnUse" x1="36.357143" x2="36.357143" y1="6" y2="63.893143"><stop offset="0" stop-color="#fefefe"/><stop offset="1" stop-color="#fefefe" stop-opacity="0"/></linearGradient><linearGradient id="b" gradientUnits="userSpaceOnUse" x1="48" x2="48" y1="90" y2="5.987717"><stop offset="0" stop-color="#233d65"/><stop offset="1" stop-color="#396aa1"/></linearGradient><linearGradient id="c" gradientTransform="matrix(1.0058652 0 0 .994169 100 0)" gradientUnits="userSpaceOnUse" x1="45.447727" x2="45.447727" y1="92.539597" y2="7.01654"><stop offset="0"/><stop offset="1" stop-opacity=".588235"/></linearGradient><linearGradient id="d" gradientTransform="matrix(1.0238095 0 0 1.0119048 -1.142857 -98.071429)" gradientUnits="userSpaceOnUse" x1="32.251034" x2="32.251034" xlink:href="#c" y1="6.131708" y2="90.238609"/><linearGradient id="e" gradientTransform="translate(0 -97)" gradientUnits="userSpaceOnUse" x1="32.251034" x2="32.251034" xlink:href="#c" y1="6.131708" y2="90.238609"/><linearGradient id="f" gradientUnits="userSpaceOnUse" x1="6" x2="90" y1="48.171875" y2="48.171875"><stop offset="0" stop-color="#06b5ff"/><stop offset="1" stop-color="#0ff" stop-opacity="0"/></linearGradient><g><g fill="url(#d)"><path d="m12-95.03125c-5.5110903 0-10.03125 4.52016-10.03125 10.03125v71c0 5.5110902 4.5201598 10.03125 10.03125 10.03125h72c5.51109 0 10.03125-4.5201597 10.03125-10.03125v-71c0-5.51109-4.52016-10.03125-10.03125-10.03125z" opacity=".08" transform="scale(1 -1)"/><path d="m12-94.03125c-4.971633 0-9.03125 4.059617-9.03125 9.03125v71c0 4.9716329 4.0596171 9.03125 9.03125 9.03125h72c4.971633 0 9.03125-4.059617 9.03125-9.03125v-71c0-4.971633-4.059617-9.03125-9.03125-9.03125z" opacity=".1" transform="scale(1 -1)"/><path d="m12-93c-4.4091333 0-8 3.590867-8 8v71c0 4.4091333 3.5908667 8 8 8h72c4.409133 0 8-3.5908667 8-8v-71c0-4.409133-3.590867-8-8-8z" opacity=".2" transform="scale(1 -1)"/><rect height="85" opacity=".3" rx="7" transform="scale(1 -1)" width="86" x="5" y="-92"/></g><rect fill="url(#e)" height="84" opacity=".45" rx="6" transform="scale(1 -1)" width="84" x="6" y="-91"/></g><rect fill="url(#b)" height="84" rx="6" width="84" x="6" y="6"/><path d="m12 6c-3.324 0-6 2.676-6 6v2 68 2c0 .334721.04135.6507.09375.96875.0487.295596.09704.596915.1875.875.00988.03038.020892.0636.03125.09375.098865.287771.2348802.547452.375.8125.1445918.273507.3156161.535615.5.78125s.3737765.473472.59375.6875c.439947.428056.94291.814526 1.5 1.09375.278545.139612.5734731.246947.875.34375-.2562018-.100222-.4867109-.236272-.71875-.375-.00741-.0044-.023866.0045-.03125 0-.031933-.0193-.062293-.04251-.09375-.0625-.120395-.0767-.2310226-.163513-.34375-.25-.1061728-.0808-.2132809-.161112-.3125-.25-.1779299-.161433-.3474596-.345388-.5-.53125-.1075789-.130255-.2183939-.265285-.3125-.40625-.025089-.03838-.038446-.08587-.0625-.125-.064763-.103032-.1302275-.204517-.1875-.3125-.1010083-.194706-.2056748-.415701-.28125-.625-.00796-.02181-.023589-.04055-.03125-.0625-.0318251-.09195-.0358045-.186831-.0625-.28125-.0303323-.106618-.0703894-.203031-.09375-.3125-.0728786-.341512-.125-.698205-.125-1.0625v-2-68-2c0-2.781848 2.2181517-5 5-5h2 68 2c2.781848 0 5 2.218152 5 5v2 68 2c0 .364295-.05212.720988-.125 1.0625-.04415.206893-.08838.397658-.15625.59375-.0077.02195-.0233.04069-.03125.0625-.06274.173739-.138383.367449-.21875.53125-.04158.0828-.07904.169954-.125.25-.0546.09721-.126774.18835-.1875.28125-.09411.140965-.204921.275995-.3125.40625-.143174.17445-.303141.346998-.46875.5-.01117.0102-.01998.02115-.03125.03125-.138386.125556-.285091.234436-.4375.34375-.102571.07315-.204318.153364-.3125.21875-.0074.0045-.02384-.0044-.03125 0-.232039.138728-.462548.274778-.71875.375.301527-.0968.596455-.204138.875-.34375.55709-.279224 1.060053-.665694 1.5-1.09375.219973-.214028.409366-.441865.59375-.6875s.355408-.507743.5-.78125c.14012-.265048.276135-.524729.375-.8125.01041-.03078.02133-.06274.03125-.09375.09046-.278085.1388-.579404.1875-.875.0524-.31805.09375-.634029.09375-.96875v-2-68-2c0-3.324-2.676-6-6-6z" fill="url(#a)" opacity=".35"/><path d="m12 90c-3.324 0-6-2.676-6-6v-2-68-2c0-.334721.04135-.6507.09375-.96875.0487-.295596.09704-.596915.1875-.875.00988-.03038.020892-.0636.03125-.09375.098865-.287771.2348802-.547452.375-.8125.1445918-.273507.3156161-.535615.5-.78125s.3737765-.473472.59375-.6875c.439947-.428056.94291-.814526 1.5-1.09375.278545-.139612.5734731-.246947.875-.34375-.2562018.100222-.4867109.236272-.71875.375-.00741.0044-.023866-.0045-.03125 0-.031933.0193-.062293.04251-.09375.0625-.120395.0767-.2310226.163513-.34375.25-.1061728.0808-.2132809.161112-.3125.25-.1779299.161433-.3474596.345388-.5.53125-.1075789.130255-.2183939.265285-.3125.40625-.025089.03838-.038446.08587-.0625.125-.064763.103032-.1302275.204517-.1875.3125-.1010083.194706-.2056748.415701-.28125.625-.00796.02181-.023589.04055-.03125.0625-.0318251.09195-.0358045.186831-.0625.28125-.0303323.106618-.0703894.203031-.09375.3125-.0728786.341512-.125.698205-.125 1.0625v2 68 2c0 2.781848 2.2181517 5 5 5h2 68 2c2.781848 0 5-2.218152 5-5v-2-68-2c0-.364295-.05212-.720988-.125-1.0625-.04415-.206893-.08838-.397658-.15625-.59375-.0077-.02195-.0233-.04069-.03125-.0625-.06274-.173739-.138383-.367449-.21875-.53125-.04158-.0828-.07904-.169954-.125-.25-.0546-.09721-.126774-.18835-.1875-.28125-.09411-.140965-.204921-.275995-.3125-.40625-.143174-.17445-.303141-.346998-.46875-.5-.01117-.0102-.01998-.02115-.03125-.03125-.138386-.125556-.285091-.234436-.4375-.34375-.102571-.07315-.204318-.153364-.3125-.21875-.0074-.0045-.02384.0044-.03125 0-.232039-.138728-.462548-.274778-.71875-.375.301527.0968.596455.204138.875.34375.55709.279224 1.060053.665694 1.5 1.09375.219973.214028.409366.441865.59375.6875s.355408.507743.5.78125c.14012.265048.276135.524729.375.8125.01041.03078.02133.06274.03125.09375.09046.278085.1388.579404.1875.875.0524.31805.09375.634029.09375.96875v2 68 2c0 3.324-2.676 6-6 6z" fill="url(#f)" opacity=".213"/><path d="m18.579797 15.084261c-1.6118-.02773-3.014646.579067-3.746922 2.359962-1.231695 3.00067 1.840644 5.927748 2.939024 7.447986.770085 1.066527 1.755048 2.264416 2.306193 3.464311.362209.787932.425863 1.581906.736259 2.415644.762099 2.0555 1.42475 4.286141 2.411732 6.186389.499432.96111 1.048613 1.977942 1.679382 2.835537.386018.527328 1.048664.760123 1.154102 1.573963-.648645.907391-.684477 2.310187-1.048645 3.458327-1.639624 5.169624-1.022749 11.59683 1.363045 15.42328.732295 1.173979 2.457461 3.69312 4.827379 2.726081 2.073395-.843712 1.611741-3.460358 2.204732-5.770541.133461-.523358.04963-.907396.312418-1.257584v.105445c.628759 1.25957 1.25955 2.515168 1.890318 3.774719 1.398871 2.250499 3.878198 4.606472 5.989434 6.194354 1.090426.823791 1.950041 2.246534 3.358834 2.726092v-.105511h-.105498c-.272614-.425819-.698395-.604932-1.048647-.947198-.821803-.803873-1.737133-1.804743-2.415675-2.726056-1.912234-2.594732-3.599598-5.434233-5.139724-8.391136-.736257-1.412781-1.374981-2.968855-1.989838-4.405506-.238793-.553188-.234826-1.392927-.732273-1.679437-.67853 1.052606-1.681419 1.904259-2.204734 3.147927-.83974 1.987847-.947188 4.40948-1.257585 6.922644-.185116.06582-.101126.024-.210907.105414-1.460562-.352155-1.973931-1.856512-2.517158-3.1479-1.374965-3.263346-1.629707-8.518499-.421853-12.275332.312412-.971052 1.725201-4.033398 1.154092-4.932789-.272601-.895429-1.173985-1.410807-1.679404-2.09529-.624815-.845697-1.247613-1.959974-1.679423-2.936995-1.124256-2.545021-1.64955-5.402424-2.833513-7.979271-.565109-1.229725-1.520265-2.475382-2.30623-3.567802-.869569-1.211795-1.846554-2.103228-2.521118-3.567769-.2408-.521315-.56116-1.351109-.20696-1.884356.113527-.360177.27063-.513399.626782-.630802.608911-.469594 2.304221.157246 2.937036.419876 1.683393.698429 3.086215 1.363029 4.512967 2.306221.684472.453672 1.378932 1.331191 2.204728 1.573964h.943161c1.476459.340265 3.132022.10744 4.512973.52529 2.439522.742237 4.626355 1.894335 6.612231 3.147961 6.049114 3.818494 10.99186 9.2547 14.374611 15.739597.545212 1.044671.78 2.039574 1.259563 3.147946.967078 2.232617 2.186829 4.528888 3.147934 6.711738.96107 2.178834 1.896297 4.377643 3.253364 6.190382.714348.953113 3.470303 1.466523 4.721898 1.989828.877537.372091 2.31618.758118 3.147922 1.257567 1.587884.95912 3.128016 2.099303 4.61841 3.147945.744208.525315 3.034505 1.673456 3.147932 2.622608-3.691149-.09959-6.508777.242742-8.918457 1.257585-.684502.288517-1.778917.298451-1.890355 1.158067.376081.393991.437768.982978.736254 1.468529.57505.931204 1.544099 2.176864 2.411683 2.831528.94714.714364 1.92217 1.480441 2.938994 2.099275 1.806774 1.10037 3.820493 1.729186 5.55962 2.831525 1.024742.650707 2.043547 1.466542 3.042449 2.20077.493482.362172.825765.925266 1.468486 1.152101v-.101166c-.338221-.429885-.421806-1.024848-.732211-1.472574l-1.363035-1.363033c-1.333225-1.770971-3.02856-3.325021-4.827371-4.616438-1.434677-1.030749-4.65026-2.419644-5.249208-4.091125-.03576-.03576-.0695-.06954-.105438-.105414 1.016818-.115362 2.212712-.48154 3.151901-.732255 1.577954-.423841 2.984775-.316377 4.612473-.736252.734231-.208915 1.470473-.41784 2.204731-.626776v-.419861c-.823801-.845791-1.412809-1.962096-2.310214-2.726206-2.350001-2.009715-4.914898-3.999571-7.555438-5.669022-1.464522-.92531-3.271304-1.522249-4.823395-2.306275-.521325-.262628-1.438648-.401942-1.784898-.841708-.815819-1.038685-1.261548-2.353947-1.890316-3.563778-1.317285-2.537055-2.608705-5.306887-3.774733-7.979253-.795949-1.818727-1.319249-3.615527-2.310211-5.247209-4.765687-7.832025-9.893513-12.561866-17.838924-17.208123-1.691386-.988962-3.72498-1.374971-5.876019-1.884411-1.154095-.06966-2.310189-.141215-3.464305-.210933-.704402-.294503-1.438631-1.156097-2.101236-1.573917-1.645631-1.038699-4.899003-2.841493-7.585297-2.887296m11.363971 11.383872c-.770048-.01529-1.315268.08567-1.890352.210945v.105414h.105434c.366145.754152 1.014836 1.239676 1.46853 1.890351.350157.734258.698418 1.466486 1.04862 2.200748.0337-.0337.06953-.0657.105465-.101246.650712-.457681.951148-1.191926.947145-2.310213-.260628-.274606-.300419-.614873-.525273-.94319-.300482-.435779-.879511-.686481-1.257579-1.052619z" fill="#def2fe" stroke="#def2fe" stroke-linecap="square" stroke-linejoin="bevel" stroke-width=".795935"/></svg>